<mxfile host="Electron" modified="2023-07-29T17:16:37.163Z" agent="Mozilla/5.0 (Windows NT 10.0; Win64; x64) AppleWebKit/537.36 (KHTML, like Gecko) draw.io/21.6.5 Chrome/114.0.5735.243 Electron/25.3.1 Safari/537.36" etag="qpHsdOU4RKJZAvwflhFP" version="21.6.5" type="device">
  <diagram id="prtHgNgQTEPvFCAcTncT" name="Page-1">
    <mxGraphModel dx="985" dy="494" grid="1" gridSize="10" guides="1" tooltips="1" connect="1" arrows="1" fold="1" page="1" pageScale="1" pageWidth="1169" pageHeight="1654" math="0" shadow="0">
      <root>
        <mxCell id="0" />
        <mxCell id="1" parent="0" />
        <mxCell id="kK0BNM713izOEUkaCKe4-2" value="клиент" style="shape=umlFrame;whiteSpace=wrap;html=1;pointerEvents=0;" vertex="1" parent="1">
          <mxGeometry x="79" y="80" width="240" height="810" as="geometry" />
        </mxCell>
        <mxCell id="kK0BNM713izOEUkaCKe4-3" value="приемщик" style="shape=umlFrame;whiteSpace=wrap;html=1;pointerEvents=0;" vertex="1" parent="1">
          <mxGeometry x="319" y="80" width="400" height="810" as="geometry" />
        </mxCell>
        <mxCell id="kK0BNM713izOEUkaCKe4-4" value="мастер" style="shape=umlFrame;whiteSpace=wrap;html=1;pointerEvents=0;" vertex="1" parent="1">
          <mxGeometry x="719" y="80" width="290" height="810" as="geometry" />
        </mxCell>
        <mxCell id="kK0BNM713izOEUkaCKe4-5" value="" style="ellipse;html=1;shape=startState;fillColor=#000000;strokeColor=#ff0000;" vertex="1" parent="1">
          <mxGeometry x="179" y="90" width="30" height="30" as="geometry" />
        </mxCell>
        <mxCell id="kK0BNM713izOEUkaCKe4-6" value="" style="edgeStyle=orthogonalEdgeStyle;html=1;verticalAlign=bottom;endArrow=open;endSize=8;strokeColor=#ff0000;rounded=0;" edge="1" source="kK0BNM713izOEUkaCKe4-5" parent="1">
          <mxGeometry relative="1" as="geometry">
            <mxPoint x="194" y="180" as="targetPoint" />
          </mxGeometry>
        </mxCell>
        <mxCell id="kK0BNM713izOEUkaCKe4-11" style="edgeStyle=orthogonalEdgeStyle;rounded=0;orthogonalLoop=1;jettySize=auto;html=1;exitX=0.5;exitY=1;exitDx=0;exitDy=0;entryX=0.5;entryY=0;entryDx=0;entryDy=0;" edge="1" parent="1" source="kK0BNM713izOEUkaCKe4-7" target="kK0BNM713izOEUkaCKe4-8">
          <mxGeometry relative="1" as="geometry" />
        </mxCell>
        <mxCell id="kK0BNM713izOEUkaCKe4-7" value="заявка на ремонт" style="ellipse;whiteSpace=wrap;html=1;" vertex="1" parent="1">
          <mxGeometry x="124" y="180" width="140" height="70" as="geometry" />
        </mxCell>
        <mxCell id="kK0BNM713izOEUkaCKe4-8" value="лично" style="rhombus;whiteSpace=wrap;html=1;fontColor=#000000;fillColor=#ffffc0;strokeColor=#ff0000;" vertex="1" parent="1">
          <mxGeometry x="159" y="270" width="80" height="40" as="geometry" />
        </mxCell>
        <mxCell id="kK0BNM713izOEUkaCKe4-9" value="да" style="edgeStyle=orthogonalEdgeStyle;html=1;align=left;verticalAlign=bottom;endArrow=open;endSize=8;strokeColor=#ff0000;rounded=0;entryX=0;entryY=0.5;entryDx=0;entryDy=0;" edge="1" source="kK0BNM713izOEUkaCKe4-8" parent="1" target="kK0BNM713izOEUkaCKe4-12">
          <mxGeometry x="-1" relative="1" as="geometry">
            <mxPoint x="339" y="290" as="targetPoint" />
          </mxGeometry>
        </mxCell>
        <mxCell id="kK0BNM713izOEUkaCKe4-10" value="нет" style="edgeStyle=orthogonalEdgeStyle;html=1;align=left;verticalAlign=top;endArrow=open;endSize=8;strokeColor=#ff0000;rounded=0;entryX=0.5;entryY=0;entryDx=0;entryDy=0;" edge="1" source="kK0BNM713izOEUkaCKe4-8" parent="1" target="kK0BNM713izOEUkaCKe4-13">
          <mxGeometry x="-1" relative="1" as="geometry">
            <mxPoint x="199" y="370" as="targetPoint" />
          </mxGeometry>
        </mxCell>
        <mxCell id="kK0BNM713izOEUkaCKe4-19" style="edgeStyle=orthogonalEdgeStyle;rounded=0;orthogonalLoop=1;jettySize=auto;html=1;entryX=0.5;entryY=0;entryDx=0;entryDy=0;" edge="1" parent="1" source="kK0BNM713izOEUkaCKe4-12" target="kK0BNM713izOEUkaCKe4-18">
          <mxGeometry relative="1" as="geometry" />
        </mxCell>
        <mxCell id="kK0BNM713izOEUkaCKe4-12" value="прием заявки&lt;br&gt;на ремонт" style="ellipse;whiteSpace=wrap;html=1;" vertex="1" parent="1">
          <mxGeometry x="379" y="255" width="140" height="70" as="geometry" />
        </mxCell>
        <mxCell id="kK0BNM713izOEUkaCKe4-14" style="edgeStyle=orthogonalEdgeStyle;rounded=0;orthogonalLoop=1;jettySize=auto;html=1;exitX=1;exitY=0.5;exitDx=0;exitDy=0;entryX=0;entryY=1;entryDx=0;entryDy=0;" edge="1" parent="1" source="kK0BNM713izOEUkaCKe4-13" target="kK0BNM713izOEUkaCKe4-12">
          <mxGeometry relative="1" as="geometry">
            <Array as="points">
              <mxPoint x="359" y="445" />
              <mxPoint x="359" y="314" />
            </Array>
          </mxGeometry>
        </mxCell>
        <mxCell id="kK0BNM713izOEUkaCKe4-13" value="подача заявки на ремонт через&lt;br&gt;CRM" style="ellipse;whiteSpace=wrap;html=1;" vertex="1" parent="1">
          <mxGeometry x="129" y="410" width="140" height="70" as="geometry" />
        </mxCell>
        <mxCell id="kK0BNM713izOEUkaCKe4-15" value="предварит&lt;br&gt;заявка&lt;br&gt;на ремонт" style="html=1;whiteSpace=wrap;" vertex="1" parent="1">
          <mxGeometry x="229" y="310" width="80" height="50" as="geometry" />
        </mxCell>
        <mxCell id="kK0BNM713izOEUkaCKe4-16" value="" style="endArrow=open;endSize=12;dashed=1;html=1;rounded=0;exitX=1;exitY=0;exitDx=0;exitDy=0;entryX=0.5;entryY=1;entryDx=0;entryDy=0;" edge="1" parent="1" source="kK0BNM713izOEUkaCKe4-13" target="kK0BNM713izOEUkaCKe4-15">
          <mxGeometry x="-0.0132" width="160" relative="1" as="geometry">
            <mxPoint x="239" y="470" as="sourcePoint" />
            <mxPoint x="399" y="470" as="targetPoint" />
            <mxPoint as="offset" />
          </mxGeometry>
        </mxCell>
        <mxCell id="kK0BNM713izOEUkaCKe4-17" value="" style="endArrow=open;endSize=12;dashed=1;html=1;rounded=0;exitX=1;exitY=0.5;exitDx=0;exitDy=0;entryX=0.041;entryY=0.751;entryDx=0;entryDy=0;entryPerimeter=0;" edge="1" parent="1" source="kK0BNM713izOEUkaCKe4-15" target="kK0BNM713izOEUkaCKe4-12">
          <mxGeometry width="160" relative="1" as="geometry">
            <mxPoint x="359" y="330" as="sourcePoint" />
            <mxPoint x="519" y="330" as="targetPoint" />
          </mxGeometry>
        </mxCell>
        <mxCell id="kK0BNM713izOEUkaCKe4-23" style="edgeStyle=orthogonalEdgeStyle;rounded=0;orthogonalLoop=1;jettySize=auto;html=1;exitX=1;exitY=0.5;exitDx=0;exitDy=0;entryX=0;entryY=0.5;entryDx=0;entryDy=0;" edge="1" parent="1" source="kK0BNM713izOEUkaCKe4-18" target="kK0BNM713izOEUkaCKe4-22">
          <mxGeometry relative="1" as="geometry" />
        </mxCell>
        <mxCell id="kK0BNM713izOEUkaCKe4-18" value="осмотр объекта ремонта, уточнение заявленной неисправности" style="ellipse;whiteSpace=wrap;html=1;" vertex="1" parent="1">
          <mxGeometry x="389" y="360" width="140" height="70" as="geometry" />
        </mxCell>
        <mxCell id="kK0BNM713izOEUkaCKe4-20" value="заявка&lt;br&gt;на ремонт" style="html=1;whiteSpace=wrap;" vertex="1" parent="1">
          <mxGeometry x="584" y="453" width="80" height="50" as="geometry" />
        </mxCell>
        <mxCell id="kK0BNM713izOEUkaCKe4-21" value="" style="endArrow=open;endSize=12;dashed=1;html=1;rounded=0;exitX=1;exitY=1;exitDx=0;exitDy=0;entryX=0;entryY=0;entryDx=0;entryDy=0;" edge="1" parent="1" source="kK0BNM713izOEUkaCKe4-18" target="kK0BNM713izOEUkaCKe4-20">
          <mxGeometry width="160" relative="1" as="geometry">
            <mxPoint x="509" y="353" as="sourcePoint" />
            <mxPoint x="669" y="353" as="targetPoint" />
          </mxGeometry>
        </mxCell>
        <mxCell id="kK0BNM713izOEUkaCKe4-30" style="edgeStyle=orthogonalEdgeStyle;rounded=0;orthogonalLoop=1;jettySize=auto;html=1;entryX=0.5;entryY=0;entryDx=0;entryDy=0;" edge="1" parent="1" source="kK0BNM713izOEUkaCKe4-22" target="kK0BNM713izOEUkaCKe4-27">
          <mxGeometry relative="1" as="geometry" />
        </mxCell>
        <mxCell id="kK0BNM713izOEUkaCKe4-22" value="определение возможности ремонта" style="ellipse;whiteSpace=wrap;html=1;" vertex="1" parent="1">
          <mxGeometry x="779" y="373" width="140" height="70" as="geometry" />
        </mxCell>
        <mxCell id="kK0BNM713izOEUkaCKe4-26" value="" style="endArrow=open;endSize=12;dashed=1;html=1;rounded=0;exitX=1;exitY=0.5;exitDx=0;exitDy=0;entryX=0.062;entryY=0.773;entryDx=0;entryDy=0;entryPerimeter=0;" edge="1" parent="1" source="kK0BNM713izOEUkaCKe4-20" target="kK0BNM713izOEUkaCKe4-22">
          <mxGeometry width="160" relative="1" as="geometry">
            <mxPoint x="509" y="353" as="sourcePoint" />
            <mxPoint x="669" y="353" as="targetPoint" />
          </mxGeometry>
        </mxCell>
        <mxCell id="kK0BNM713izOEUkaCKe4-27" value="ремонт&lt;br style=&quot;border-color: var(--border-color);&quot;&gt;возможен?" style="rhombus;whiteSpace=wrap;html=1;fontColor=#000000;fillColor=#ffffc0;strokeColor=#ff0000;" vertex="1" parent="1">
          <mxGeometry x="784" y="503" width="130" height="70" as="geometry" />
        </mxCell>
        <mxCell id="kK0BNM713izOEUkaCKe4-28" value="нет" style="edgeStyle=orthogonalEdgeStyle;html=1;align=left;verticalAlign=bottom;endArrow=open;endSize=8;strokeColor=#ff0000;rounded=0;entryX=1;entryY=0.5;entryDx=0;entryDy=0;" edge="1" source="kK0BNM713izOEUkaCKe4-27" parent="1" target="kK0BNM713izOEUkaCKe4-31">
          <mxGeometry x="-1" relative="1" as="geometry">
            <mxPoint x="979" y="543" as="targetPoint" />
          </mxGeometry>
        </mxCell>
        <mxCell id="kK0BNM713izOEUkaCKe4-29" value="да" style="edgeStyle=orthogonalEdgeStyle;html=1;align=left;verticalAlign=top;endArrow=open;endSize=8;strokeColor=#ff0000;rounded=0;entryX=1;entryY=0.5;entryDx=0;entryDy=0;" edge="1" source="kK0BNM713izOEUkaCKe4-27" parent="1" target="kK0BNM713izOEUkaCKe4-35">
          <mxGeometry x="-1" relative="1" as="geometry">
            <mxPoint x="839" y="623" as="targetPoint" />
            <Array as="points">
              <mxPoint x="849" y="590" />
              <mxPoint x="677" y="590" />
              <mxPoint x="677" y="675" />
            </Array>
          </mxGeometry>
        </mxCell>
        <mxCell id="kK0BNM713izOEUkaCKe4-34" style="edgeStyle=orthogonalEdgeStyle;rounded=0;orthogonalLoop=1;jettySize=auto;html=1;exitX=0;exitY=0.5;exitDx=0;exitDy=0;entryX=1;entryY=0.5;entryDx=0;entryDy=0;" edge="1" parent="1" source="kK0BNM713izOEUkaCKe4-31" target="kK0BNM713izOEUkaCKe4-33">
          <mxGeometry relative="1" as="geometry" />
        </mxCell>
        <mxCell id="kK0BNM713izOEUkaCKe4-31" value="возврат техники и уведомление об отказе в ремонте" style="ellipse;whiteSpace=wrap;html=1;" vertex="1" parent="1">
          <mxGeometry x="369" y="503" width="140" height="70" as="geometry" />
        </mxCell>
        <mxCell id="kK0BNM713izOEUkaCKe4-32" value="" style="endArrow=open;endSize=12;dashed=1;html=1;rounded=0;entryX=1;entryY=0;entryDx=0;entryDy=0;exitX=0;exitY=0.5;exitDx=0;exitDy=0;" edge="1" parent="1" source="kK0BNM713izOEUkaCKe4-20" target="kK0BNM713izOEUkaCKe4-31">
          <mxGeometry width="160" relative="1" as="geometry">
            <mxPoint x="549" y="393" as="sourcePoint" />
            <mxPoint x="709" y="393" as="targetPoint" />
          </mxGeometry>
        </mxCell>
        <mxCell id="kK0BNM713izOEUkaCKe4-33" value="" style="ellipse;html=1;shape=endState;fillColor=#000000;strokeColor=#ff0000;" vertex="1" parent="1">
          <mxGeometry x="199" y="553" width="30" height="30" as="geometry" />
        </mxCell>
        <mxCell id="kK0BNM713izOEUkaCKe4-40" style="edgeStyle=orthogonalEdgeStyle;rounded=0;orthogonalLoop=1;jettySize=auto;html=1;entryX=1;entryY=0.5;entryDx=0;entryDy=0;" edge="1" parent="1" source="kK0BNM713izOEUkaCKe4-35" target="kK0BNM713izOEUkaCKe4-38">
          <mxGeometry relative="1" as="geometry">
            <Array as="points">
              <mxPoint x="584" y="755" />
            </Array>
          </mxGeometry>
        </mxCell>
        <mxCell id="kK0BNM713izOEUkaCKe4-35" value="приемка техники в ремонт и оформление&lt;br&gt;квитанции" style="ellipse;whiteSpace=wrap;html=1;" vertex="1" parent="1">
          <mxGeometry x="514" y="640" width="140" height="70" as="geometry" />
        </mxCell>
        <mxCell id="kK0BNM713izOEUkaCKe4-36" value="квитанция&lt;br&gt;о приемке в ремонт" style="html=1;whiteSpace=wrap;" vertex="1" parent="1">
          <mxGeometry x="330" y="660" width="130" height="60" as="geometry" />
        </mxCell>
        <mxCell id="kK0BNM713izOEUkaCKe4-37" value="" style="endArrow=open;endSize=12;dashed=1;html=1;rounded=0;exitX=0;exitY=0.5;exitDx=0;exitDy=0;entryX=1;entryY=0.5;entryDx=0;entryDy=0;" edge="1" parent="1" source="kK0BNM713izOEUkaCKe4-35" target="kK0BNM713izOEUkaCKe4-36">
          <mxGeometry width="160" relative="1" as="geometry">
            <mxPoint x="430" y="590" as="sourcePoint" />
            <mxPoint x="590" y="590" as="targetPoint" />
          </mxGeometry>
        </mxCell>
        <mxCell id="kK0BNM713izOEUkaCKe4-43" style="edgeStyle=orthogonalEdgeStyle;rounded=0;orthogonalLoop=1;jettySize=auto;html=1;exitX=0.5;exitY=1;exitDx=0;exitDy=0;" edge="1" parent="1" source="kK0BNM713izOEUkaCKe4-38" target="kK0BNM713izOEUkaCKe4-42">
          <mxGeometry relative="1" as="geometry" />
        </mxCell>
        <mxCell id="kK0BNM713izOEUkaCKe4-38" value="оформление передачи техники в ремонт и прием квитанции" style="ellipse;whiteSpace=wrap;html=1;" vertex="1" parent="1">
          <mxGeometry x="124" y="720" width="140" height="70" as="geometry" />
        </mxCell>
        <mxCell id="kK0BNM713izOEUkaCKe4-41" value="" style="endArrow=open;endSize=12;dashed=1;html=1;rounded=0;exitX=0;exitY=0.5;exitDx=0;exitDy=0;" edge="1" parent="1" source="kK0BNM713izOEUkaCKe4-36" target="kK0BNM713izOEUkaCKe4-38">
          <mxGeometry width="160" relative="1" as="geometry">
            <mxPoint x="430" y="590" as="sourcePoint" />
            <mxPoint x="590" y="590" as="targetPoint" />
          </mxGeometry>
        </mxCell>
        <mxCell id="kK0BNM713izOEUkaCKe4-42" value="" style="ellipse;html=1;shape=endState;fillColor=#000000;strokeColor=#ff0000;" vertex="1" parent="1">
          <mxGeometry x="179" y="843" width="30" height="30" as="geometry" />
        </mxCell>
      </root>
    </mxGraphModel>
  </diagram>
</mxfile>
